<svg width="90" height="24" viewBox="0 0 90 24" fill="none" xmlns="http://www.w3.org/2000/svg">
<path d="M74.2523 23.431H78.3775V12.8871C78.3775 9.20516 80.4073 7.8327 82.4699 7.8327C84.4998 7.8327 85.8748 9.17161 85.8748 12.3851V23.431H90V11.883C90 6.99589 87.5774 4.4519 83.9104 4.4519C81.4223 4.4519 79.4579 5.65699 78.3775 7.83271H78.3121V5.02109H74.2523L74.2523 23.431ZM57.7191 14.226C57.7191 9.97486 59.5854 7.79915 62.4337 7.79915C65.282 7.79915 67.1481 9.97487 67.1481 14.226C67.1481 18.4772 65.2819 20.6527 62.4337 20.6527C59.5854 20.6527 57.7191 18.477 57.7191 14.226ZM62.4336 24C67.5083 24 71.5679 20.5187 71.5679 14.226C71.5679 7.93336 67.5083 4.45189 62.4336 4.45189C57.359 4.45189 53.2992 7.93316 53.2992 14.226C53.2992 20.5189 57.359 24 62.4336 24ZM46.5878 23.431H50.7131V5.02109H46.5878V23.431ZM46.5224 3.04608H50.7457V0H46.5224V3.04608ZM38.5995 23.431H42.7248V0.000202434H38.5995V23.431ZM19.5124 23.431H23.6376V12.8871C23.6376 9.20516 25.6674 7.8327 27.7301 7.8327C29.7599 7.8327 31.1349 9.17161 31.1349 12.3851V23.431H35.2601V11.883C35.2601 6.99589 32.8375 4.4519 29.1705 4.4519C26.6824 4.4519 24.7181 5.65699 23.6376 7.83271H23.5722V5.02109H19.5124V23.431ZM4.58352 11.682V11.749C1.21132 12.4184 0 14.5608 0 17.0377C0 20.7532 2.78285 23.431 7.85746 23.431H16.9917V19.9833H8.54507C5.86028 19.9833 4.38701 18.7782 4.38701 16.7029C4.38701 14.6277 5.86028 13.4226 8.54507 13.4226H16.2715V9.97486H8.54507C5.86028 9.97486 4.38701 8.80332 4.38701 6.72807C4.38701 4.61925 5.86028 3.44771 8.54507 3.44771H16.7299V0.000202434H7.85747C2.78285 0.000202434 0 2.67801 0 6.39334C0 8.87044 1.21132 11.0126 4.58352 11.682Z" fill="#404040"/>
</svg>